<mxfile host="Electron" modified="2023-09-26T17:16:27.509Z" agent="Mozilla/5.0 (Macintosh; Intel Mac OS X 10_15_7) AppleWebKit/537.36 (KHTML, like Gecko) draw.io/21.8.2 Chrome/114.0.5735.289 Electron/25.8.1 Safari/537.36" etag="gBi9-kb-zMiyFtVqUJI1" version="21.8.2" type="device">
  <diagram id="feyCBkR_D77g4V1WUtr_" name="Page-1">
    <mxGraphModel dx="864" dy="824" grid="1" gridSize="10" guides="1" tooltips="1" connect="1" arrows="1" fold="1" page="1" pageScale="1" pageWidth="450" pageHeight="325" math="0" shadow="0">
      <root>
        <mxCell id="0" />
        <mxCell id="1" parent="0" />
        <mxCell id="HvDBClcRX0wqVvIgBwbH-92" value="" style="ellipse;whiteSpace=wrap;html=1;fillColor=none;strokeColor=#000000;" parent="1" vertex="1">
          <mxGeometry x="665.5797166891459" y="74.50229832552752" width="59.96905508504568" height="179.90227684159746" as="geometry" />
        </mxCell>
        <mxCell id="HvDBClcRX0wqVvIgBwbH-94" value="" style="shape=partialRectangle;whiteSpace=wrap;html=1;left=0;right=0;fillColor=none;" parent="1" vertex="1">
          <mxGeometry x="185.82727600878053" y="74.50229832552752" width="509.7369682228883" height="179.90227684159746" as="geometry" />
        </mxCell>
        <mxCell id="HvDBClcRX0wqVvIgBwbH-3" value="" style="shape=cylinder3;whiteSpace=wrap;html=1;boundedLbl=1;backgroundOutline=1;size=15;fillColor=#E6E6E6;strokeColor=#666666;" parent="1" vertex="1">
          <mxGeometry x="238.3001992081955" y="111.98193933419361" width="29.98452754252284" height="37.479641008666135" as="geometry" />
        </mxCell>
        <mxCell id="HvDBClcRX0wqVvIgBwbH-4" value="" style="shape=cylinder3;whiteSpace=wrap;html=1;boundedLbl=1;backgroundOutline=1;size=15;fillColor=#E6E6E6;strokeColor=#666666;" parent="1" vertex="1">
          <mxGeometry x="335.7499137213947" y="108.233975233327" width="29.98452754252284" height="37.479641008666135" as="geometry" />
        </mxCell>
        <mxCell id="HvDBClcRX0wqVvIgBwbH-5" value="" style="shape=cylinder3;whiteSpace=wrap;html=1;boundedLbl=1;backgroundOutline=1;size=15;fillColor=#E6E6E6;strokeColor=#666666;" parent="1" vertex="1">
          <mxGeometry x="590.6183978328389" y="186.94122135152588" width="29.98452754252284" height="37.479641008666135" as="geometry" />
        </mxCell>
        <mxCell id="HvDBClcRX0wqVvIgBwbH-6" value="" style="shape=cylinder3;whiteSpace=wrap;html=1;boundedLbl=1;backgroundOutline=1;size=15;fillColor=#E6E6E6;strokeColor=#666666;" parent="1" vertex="1">
          <mxGeometry x="399.46703474925573" y="156.957508544593" width="29.98452754252284" height="37.479641008666135" as="geometry" />
        </mxCell>
        <mxCell id="HvDBClcRX0wqVvIgBwbH-8" value="" style="shape=cylinder3;whiteSpace=wrap;html=1;boundedLbl=1;backgroundOutline=1;size=15;fillColor=#E6E6E6;strokeColor=#666666;" parent="1" vertex="1">
          <mxGeometry x="313.2615180645026" y="126.9737957376601" width="29.98452754252284" height="37.479641008666135" as="geometry" />
        </mxCell>
        <mxCell id="HvDBClcRX0wqVvIgBwbH-9" value="" style="shape=cylinder3;whiteSpace=wrap;html=1;boundedLbl=1;backgroundOutline=1;size=15;fillColor=#E6E6E6;strokeColor=#666666;" parent="1" vertex="1">
          <mxGeometry x="429.45156229177866" y="134.46972393939333" width="29.98452754252284" height="37.479641008666135" as="geometry" />
        </mxCell>
        <mxCell id="HvDBClcRX0wqVvIgBwbH-10" value="" style="shape=cylinder3;whiteSpace=wrap;html=1;boundedLbl=1;backgroundOutline=1;size=15;fillColor=#E6E6E6;strokeColor=#666666;" parent="1" vertex="1">
          <mxGeometry x="193.32340789441122" y="171.94936494805944" width="29.98452754252284" height="37.479641008666135" as="geometry" />
        </mxCell>
        <mxCell id="HvDBClcRX0wqVvIgBwbH-12" value="" style="shape=cylinder3;whiteSpace=wrap;html=1;boundedLbl=1;backgroundOutline=1;size=15;fillColor=#E6E6E6;strokeColor=#666666;" parent="1" vertex="1">
          <mxGeometry x="508.1609470909011" y="81.99822652726071" width="29.98452754252284" height="37.479641008666135" as="geometry" />
        </mxCell>
        <mxCell id="HvDBClcRX0wqVvIgBwbH-14" value="" style="shape=cylinder3;whiteSpace=wrap;html=1;boundedLbl=1;backgroundOutline=1;size=15;rotation=15;fillColor=#E6E6E6;strokeColor=#666666;" parent="1" vertex="1">
          <mxGeometry x="223.30793543693406" y="134.46972393939333" width="29.98452754252284" height="37.479641008666135" as="geometry" />
        </mxCell>
        <mxCell id="HvDBClcRX0wqVvIgBwbH-15" value="" style="shape=cylinder3;whiteSpace=wrap;html=1;boundedLbl=1;backgroundOutline=1;size=15;rotation=15;fillColor=#E6E6E6;strokeColor=#666666;" parent="1" vertex="1">
          <mxGeometry x="260.7885948650876" y="89.49415472899395" width="29.98452754252284" height="37.479641008666135" as="geometry" />
        </mxCell>
        <mxCell id="HvDBClcRX0wqVvIgBwbH-16" value="" style="shape=cylinder3;whiteSpace=wrap;html=1;boundedLbl=1;backgroundOutline=1;size=15;rotation=15;fillColor=#E6E6E6;strokeColor=#666666;" parent="1" vertex="1">
          <mxGeometry x="628.0990572609925" y="141.96565214112655" width="29.98452754252284" height="37.479641008666135" as="geometry" />
        </mxCell>
        <mxCell id="HvDBClcRX0wqVvIgBwbH-17" value="" style="shape=cylinder3;whiteSpace=wrap;html=1;boundedLbl=1;backgroundOutline=1;size=15;rotation=15;fillColor=#E6E6E6;strokeColor=#666666;" parent="1" vertex="1">
          <mxGeometry x="560.633870290316" y="209.42900595672563" width="29.98452754252284" height="37.479641008666135" as="geometry" />
        </mxCell>
        <mxCell id="HvDBClcRX0wqVvIgBwbH-18" value="" style="shape=cylinder3;whiteSpace=wrap;html=1;boundedLbl=1;backgroundOutline=1;size=15;rotation=15;fillColor=#E6E6E6;strokeColor=#666666;" parent="1" vertex="1">
          <mxGeometry x="410.7112325777018" y="186.94122135152588" width="29.98452754252284" height="37.479641008666135" as="geometry" />
        </mxCell>
        <mxCell id="HvDBClcRX0wqVvIgBwbH-19" value="" style="shape=cylinder3;whiteSpace=wrap;html=1;boundedLbl=1;backgroundOutline=1;size=15;rotation=15;fillColor=#E6E6E6;strokeColor=#666666;" parent="1" vertex="1">
          <mxGeometry x="553.1377384046854" y="179.44529314979263" width="29.98452754252284" height="37.479641008666135" as="geometry" />
        </mxCell>
        <mxCell id="HvDBClcRX0wqVvIgBwbH-20" value="" style="shape=cylinder3;whiteSpace=wrap;html=1;boundedLbl=1;backgroundOutline=1;size=15;rotation=15;fillColor=#E6E6E6;strokeColor=#666666;" parent="1" vertex="1">
          <mxGeometry x="290.77312240761046" y="171.94936494805944" width="29.98452754252284" height="37.479641008666135" as="geometry" />
        </mxCell>
        <mxCell id="HvDBClcRX0wqVvIgBwbH-21" value="" style="shape=cylinder3;whiteSpace=wrap;html=1;boundedLbl=1;backgroundOutline=1;size=15;rotation=15;fillColor=#E6E6E6;strokeColor=#666666;" parent="1" vertex="1">
          <mxGeometry x="658.0835848035152" y="89.49415472899395" width="29.98452754252284" height="37.479641008666135" as="geometry" />
        </mxCell>
        <mxCell id="HvDBClcRX0wqVvIgBwbH-22" value="" style="shape=cylinder3;whiteSpace=wrap;html=1;boundedLbl=1;backgroundOutline=1;size=15;rotation=15;fillColor=#E6E6E6;strokeColor=#666666;" parent="1" vertex="1">
          <mxGeometry x="673.0758485747767" y="119.47786753592685" width="29.98452754252284" height="37.479641008666135" as="geometry" />
        </mxCell>
        <mxCell id="HvDBClcRX0wqVvIgBwbH-24" value="" style="shape=cylinder3;whiteSpace=wrap;html=1;boundedLbl=1;backgroundOutline=1;size=15;rotation=15;fillColor=#E6E6E6;strokeColor=#666666;" parent="1" vertex="1">
          <mxGeometry x="628.0990572609925" y="104.48601113246043" width="29.98452754252284" height="37.479641008666135" as="geometry" />
        </mxCell>
        <mxCell id="HvDBClcRX0wqVvIgBwbH-26" value="" style="shape=cylinder3;whiteSpace=wrap;html=1;boundedLbl=1;backgroundOutline=1;size=15;rotation=30;fillColor=#E6E6E6;strokeColor=#666666;" parent="1" vertex="1">
          <mxGeometry x="485.67255143400894" y="179.44529314979263" width="29.98452754252284" height="37.479641008666135" as="geometry" />
        </mxCell>
        <mxCell id="HvDBClcRX0wqVvIgBwbH-27" value="" style="shape=cylinder3;whiteSpace=wrap;html=1;boundedLbl=1;backgroundOutline=1;size=15;rotation=30;fillColor=#E6E6E6;strokeColor=#666666;" parent="1" vertex="1">
          <mxGeometry x="170.8350122375191" y="111.98193933419361" width="29.98452754252284" height="37.479641008666135" as="geometry" />
        </mxCell>
        <mxCell id="HvDBClcRX0wqVvIgBwbH-28" value="" style="shape=cylinder3;whiteSpace=wrap;html=1;boundedLbl=1;backgroundOutline=1;size=15;rotation=30;fillColor=#E6E6E6;strokeColor=#666666;" parent="1" vertex="1">
          <mxGeometry x="455.6880238914861" y="179.44529314979263" width="29.98452754252284" height="37.479641008666135" as="geometry" />
        </mxCell>
        <mxCell id="HvDBClcRX0wqVvIgBwbH-29" value="" style="shape=cylinder3;whiteSpace=wrap;html=1;boundedLbl=1;backgroundOutline=1;size=15;rotation=30;fillColor=#E6E6E6;strokeColor=#666666;" parent="1" vertex="1">
          <mxGeometry x="395.7189688064404" y="216.92493415845877" width="29.98452754252284" height="37.479641008666135" as="geometry" />
        </mxCell>
        <mxCell id="HvDBClcRX0wqVvIgBwbH-30" value="" style="shape=cylinder3;whiteSpace=wrap;html=1;boundedLbl=1;backgroundOutline=1;size=15;rotation=30;fillColor=#E6E6E6;strokeColor=#666666;" parent="1" vertex="1">
          <mxGeometry x="515.6570789765318" y="179.44529314979263" width="29.98452754252284" height="37.479641008666135" as="geometry" />
        </mxCell>
        <mxCell id="HvDBClcRX0wqVvIgBwbH-31" value="" style="shape=cylinder3;whiteSpace=wrap;html=1;boundedLbl=1;backgroundOutline=1;size=15;rotation=30;fillColor=#E6E6E6;strokeColor=#666666;" parent="1" vertex="1">
          <mxGeometry x="343.2460456070254" y="171.94936494805944" width="29.98452754252284" height="37.479641008666135" as="geometry" />
        </mxCell>
        <mxCell id="HvDBClcRX0wqVvIgBwbH-34" value="" style="shape=cylinder3;whiteSpace=wrap;html=1;boundedLbl=1;backgroundOutline=1;size=15;rotation=30;fillColor=#E6E6E6;strokeColor=#666666;" parent="1" vertex="1">
          <mxGeometry x="215.81180355130334" y="81.99822652726071" width="29.98452754252284" height="37.479641008666135" as="geometry" />
        </mxCell>
        <mxCell id="HvDBClcRX0wqVvIgBwbH-35" value="" style="shape=cylinder3;whiteSpace=wrap;html=1;boundedLbl=1;backgroundOutline=1;size=15;rotation=30;fillColor=#E6E6E6;strokeColor=#666666;" parent="1" vertex="1">
          <mxGeometry x="485.67255143400894" y="119.47786753592685" width="29.98452754252284" height="37.479641008666135" as="geometry" />
        </mxCell>
        <mxCell id="HvDBClcRX0wqVvIgBwbH-36" value="" style="shape=cylinder3;whiteSpace=wrap;html=1;boundedLbl=1;backgroundOutline=1;size=15;rotation=45;fillColor=#E6E6E6;strokeColor=#666666;" parent="1" vertex="1">
          <mxGeometry x="268.28472675071833" y="186.94122135152588" width="29.98452754252284" height="37.479641008666135" as="geometry" />
        </mxCell>
        <mxCell id="HvDBClcRX0wqVvIgBwbH-48" value="" style="shape=cylinder3;whiteSpace=wrap;html=1;boundedLbl=1;backgroundOutline=1;size=15;rotation=45;fillColor=#E6E6E6;strokeColor=#666666;" parent="1" vertex="1">
          <mxGeometry x="208.31567166567265" y="201.93307775499238" width="29.98452754252284" height="37.479641008666135" as="geometry" />
        </mxCell>
        <mxCell id="HvDBClcRX0wqVvIgBwbH-50" value="" style="shape=cylinder3;whiteSpace=wrap;html=1;boundedLbl=1;backgroundOutline=1;size=15;rotation=45;fillColor=#E6E6E6;strokeColor=#666666;" parent="1" vertex="1">
          <mxGeometry x="230.80406732256478" y="164.45343674632625" width="29.98452754252284" height="37.479641008666135" as="geometry" />
        </mxCell>
        <mxCell id="HvDBClcRX0wqVvIgBwbH-51" value="" style="shape=cylinder3;whiteSpace=wrap;html=1;boundedLbl=1;backgroundOutline=1;size=15;rotation=45;fillColor=#E6E6E6;strokeColor=#666666;" parent="1" vertex="1">
          <mxGeometry x="538.145474633424" y="74.50229832552752" width="29.98452754252284" height="37.479641008666135" as="geometry" />
        </mxCell>
        <mxCell id="HvDBClcRX0wqVvIgBwbH-52" value="" style="shape=cylinder3;whiteSpace=wrap;html=1;boundedLbl=1;backgroundOutline=1;size=15;rotation=45;fillColor=#E6E6E6;strokeColor=#666666;" parent="1" vertex="1">
          <mxGeometry x="320.7576499501333" y="74.50229832552752" width="29.98452754252284" height="37.479641008666135" as="geometry" />
        </mxCell>
        <mxCell id="HvDBClcRX0wqVvIgBwbH-53" value="" style="shape=cylinder3;whiteSpace=wrap;html=1;boundedLbl=1;backgroundOutline=1;size=15;rotation=45;fillColor=#E6E6E6;strokeColor=#666666;" parent="1" vertex="1">
          <mxGeometry x="365.7344412639176" y="134.46972393939333" width="29.98452754252284" height="37.479641008666135" as="geometry" />
        </mxCell>
        <mxCell id="HvDBClcRX0wqVvIgBwbH-54" value="" style="shape=cylinder3;whiteSpace=wrap;html=1;boundedLbl=1;backgroundOutline=1;size=15;rotation=45;fillColor=#E6E6E6;strokeColor=#666666;" parent="1" vertex="1">
          <mxGeometry x="688.0681123460382" y="156.957508544593" width="29.98452754252284" height="37.479641008666135" as="geometry" />
        </mxCell>
        <mxCell id="HvDBClcRX0wqVvIgBwbH-55" value="" style="shape=cylinder3;whiteSpace=wrap;html=1;boundedLbl=1;backgroundOutline=1;size=15;rotation=45;fillColor=#E6E6E6;strokeColor=#666666;" parent="1" vertex="1">
          <mxGeometry x="440.6957601202247" y="171.94936494805944" width="29.98452754252284" height="37.479641008666135" as="geometry" />
        </mxCell>
        <mxCell id="HvDBClcRX0wqVvIgBwbH-57" value="" style="shape=cylinder3;whiteSpace=wrap;html=1;boundedLbl=1;backgroundOutline=1;size=15;rotation=45;fillColor=#E6E6E6;strokeColor=#666666;" parent="1" vertex="1">
          <mxGeometry x="560.633870290316" y="96.99008293072718" width="29.98452754252284" height="37.479641008666135" as="geometry" />
        </mxCell>
        <mxCell id="HvDBClcRX0wqVvIgBwbH-58" value="" style="shape=cylinder3;whiteSpace=wrap;html=1;boundedLbl=1;backgroundOutline=1;size=15;rotation=60;fillColor=#E6E6E6;strokeColor=#666666;" parent="1" vertex="1">
          <mxGeometry x="455.6880238914861" y="209.42900595672563" width="29.98452754252284" height="37.479641008666135" as="geometry" />
        </mxCell>
        <mxCell id="HvDBClcRX0wqVvIgBwbH-59" value="" style="shape=cylinder3;whiteSpace=wrap;html=1;boundedLbl=1;backgroundOutline=1;size=15;rotation=60;fillColor=#E6E6E6;strokeColor=#666666;" parent="1" vertex="1">
          <mxGeometry x="613.106793489731" y="186.94122135152588" width="29.98452754252284" height="37.479641008666135" as="geometry" />
        </mxCell>
        <mxCell id="HvDBClcRX0wqVvIgBwbH-60" value="" style="shape=cylinder3;whiteSpace=wrap;html=1;boundedLbl=1;backgroundOutline=1;size=15;rotation=60;fillColor=#E6E6E6;strokeColor=#666666;" parent="1" vertex="1">
          <mxGeometry x="635.5951891466232" y="81.99822652726071" width="29.98452754252284" height="37.479641008666135" as="geometry" />
        </mxCell>
        <mxCell id="HvDBClcRX0wqVvIgBwbH-61" value="" style="shape=cylinder3;whiteSpace=wrap;html=1;boundedLbl=1;backgroundOutline=1;size=15;rotation=60;fillColor=#E6E6E6;strokeColor=#666666;" parent="1" vertex="1">
          <mxGeometry x="523.1532108621625" y="119.47786753592685" width="29.98452754252284" height="37.479641008666135" as="geometry" />
        </mxCell>
        <mxCell id="HvDBClcRX0wqVvIgBwbH-63" value="" style="shape=cylinder3;whiteSpace=wrap;html=1;boundedLbl=1;backgroundOutline=1;size=15;rotation=60;fillColor=#E6E6E6;strokeColor=#666666;" parent="1" vertex="1">
          <mxGeometry x="320.7576499501333" y="149.46158034285975" width="29.98452754252284" height="37.479641008666135" as="geometry" />
        </mxCell>
        <mxCell id="HvDBClcRX0wqVvIgBwbH-64" value="" style="shape=cylinder3;whiteSpace=wrap;html=1;boundedLbl=1;backgroundOutline=1;size=15;rotation=60;fillColor=#E6E6E6;strokeColor=#666666;" parent="1" vertex="1">
          <mxGeometry x="425.70349634896326" y="156.957508544593" width="29.98452754252284" height="37.479641008666135" as="geometry" />
        </mxCell>
        <mxCell id="HvDBClcRX0wqVvIgBwbH-66" value="" style="shape=cylinder3;whiteSpace=wrap;html=1;boundedLbl=1;backgroundOutline=1;size=15;rotation=60;fillColor=#E6E6E6;strokeColor=#666666;" parent="1" vertex="1">
          <mxGeometry x="193.32340789441122" y="126.9737957376601" width="29.98452754252284" height="37.479641008666135" as="geometry" />
        </mxCell>
        <mxCell id="HvDBClcRX0wqVvIgBwbH-67" value="" style="shape=cylinder3;whiteSpace=wrap;html=1;boundedLbl=1;backgroundOutline=1;size=15;rotation=60;fillColor=#E6E6E6;strokeColor=#666666;" parent="1" vertex="1">
          <mxGeometry x="403.21510069207113" y="111.98193933419361" width="29.98452754252284" height="37.479641008666135" as="geometry" />
        </mxCell>
        <mxCell id="HvDBClcRX0wqVvIgBwbH-68" value="" style="shape=cylinder3;whiteSpace=wrap;html=1;boundedLbl=1;backgroundOutline=1;size=15;rotation=60;fillColor=#E6E6E6;strokeColor=#666666;" parent="1" vertex="1">
          <mxGeometry x="358.23830937828683" y="104.48601113246043" width="29.98452754252284" height="37.479641008666135" as="geometry" />
        </mxCell>
        <mxCell id="HvDBClcRX0wqVvIgBwbH-69" value="" style="shape=cylinder3;whiteSpace=wrap;html=1;boundedLbl=1;backgroundOutline=1;size=15;rotation=75;fillColor=#E6E6E6;strokeColor=#666666;" parent="1" vertex="1">
          <mxGeometry x="658.0835848035152" y="141.96565214112655" width="29.98452754252284" height="37.479641008666135" as="geometry" />
        </mxCell>
        <mxCell id="HvDBClcRX0wqVvIgBwbH-70" value="" style="shape=cylinder3;whiteSpace=wrap;html=1;boundedLbl=1;backgroundOutline=1;size=15;rotation=75;fillColor=#E6E6E6;strokeColor=#666666;" parent="1" vertex="1">
          <mxGeometry x="568.1300021759469" y="126.9737957376601" width="29.98452754252284" height="37.479641008666135" as="geometry" />
        </mxCell>
        <mxCell id="HvDBClcRX0wqVvIgBwbH-71" value="" style="shape=cylinder3;whiteSpace=wrap;html=1;boundedLbl=1;backgroundOutline=1;size=15;rotation=75;fillColor=#E6E6E6;strokeColor=#666666;" parent="1" vertex="1">
          <mxGeometry x="365.7344412639176" y="179.44529314979263" width="29.98452754252284" height="37.479641008666135" as="geometry" />
        </mxCell>
        <mxCell id="HvDBClcRX0wqVvIgBwbH-72" value="" style="shape=cylinder3;whiteSpace=wrap;html=1;boundedLbl=1;backgroundOutline=1;size=15;rotation=75;fillColor=#E6E6E6;strokeColor=#666666;" parent="1" vertex="1">
          <mxGeometry x="328.253781835764" y="209.42900595672563" width="29.98452754252284" height="37.479641008666135" as="geometry" />
        </mxCell>
        <mxCell id="HvDBClcRX0wqVvIgBwbH-73" value="" style="shape=cylinder3;whiteSpace=wrap;html=1;boundedLbl=1;backgroundOutline=1;size=15;rotation=75;fillColor=#E6E6E6;strokeColor=#666666;" parent="1" vertex="1">
          <mxGeometry x="373.23057314954826" y="156.957508544593" width="29.98452754252284" height="37.479641008666135" as="geometry" />
        </mxCell>
        <mxCell id="HvDBClcRX0wqVvIgBwbH-74" value="" style="shape=cylinder3;whiteSpace=wrap;html=1;boundedLbl=1;backgroundOutline=1;size=15;rotation=75;fillColor=#E6E6E6;strokeColor=#666666;" parent="1" vertex="1">
          <mxGeometry x="433.199628234594" y="74.50229832552752" width="29.98452754252284" height="37.479641008666135" as="geometry" />
        </mxCell>
        <mxCell id="HvDBClcRX0wqVvIgBwbH-76" value="" style="shape=cylinder3;whiteSpace=wrap;html=1;boundedLbl=1;backgroundOutline=1;size=15;rotation=75;fillColor=#E6E6E6;strokeColor=#666666;" parent="1" vertex="1">
          <mxGeometry x="590.6183978328389" y="145.71361624199312" width="29.98452754252284" height="37.479641008666135" as="geometry" />
        </mxCell>
        <mxCell id="HvDBClcRX0wqVvIgBwbH-77" value="" style="shape=cylinder3;whiteSpace=wrap;html=1;boundedLbl=1;backgroundOutline=1;size=15;rotation=75;fillColor=#E6E6E6;strokeColor=#666666;" parent="1" vertex="1">
          <mxGeometry x="365.7344412639176" y="209.42900595672563" width="29.98452754252284" height="37.479641008666135" as="geometry" />
        </mxCell>
        <mxCell id="HvDBClcRX0wqVvIgBwbH-78" value="" style="shape=cylinder3;whiteSpace=wrap;html=1;boundedLbl=1;backgroundOutline=1;size=15;rotation=75;fillColor=#E6E6E6;strokeColor=#666666;" parent="1" vertex="1">
          <mxGeometry x="478.1764195483782" y="96.99008293072718" width="29.98452754252284" height="37.479641008666135" as="geometry" />
        </mxCell>
        <mxCell id="HvDBClcRX0wqVvIgBwbH-79" value="" style="shape=cylinder3;whiteSpace=wrap;html=1;boundedLbl=1;backgroundOutline=1;size=15;rotation=75;fillColor=#E6E6E6;strokeColor=#666666;" parent="1" vertex="1">
          <mxGeometry x="185.82727600878053" y="81.99822652726071" width="29.98452754252284" height="37.479641008666135" as="geometry" />
        </mxCell>
        <mxCell id="HvDBClcRX0wqVvIgBwbH-80" value="" style="shape=cylinder3;whiteSpace=wrap;html=1;boundedLbl=1;backgroundOutline=1;size=15;rotation=90;fillColor=#E6E6E6;strokeColor=#666666;" parent="1" vertex="1">
          <mxGeometry x="628.0990572609925" y="216.92493415845877" width="29.98452754252284" height="37.479641008666135" as="geometry" />
        </mxCell>
        <mxCell id="HvDBClcRX0wqVvIgBwbH-81" value="" style="shape=cylinder3;whiteSpace=wrap;html=1;boundedLbl=1;backgroundOutline=1;size=15;rotation=90;fillColor=#E6E6E6;strokeColor=#666666;" parent="1" vertex="1">
          <mxGeometry x="583.1222659472082" y="74.50229832552752" width="29.98452754252284" height="37.479641008666135" as="geometry" />
        </mxCell>
        <mxCell id="HvDBClcRX0wqVvIgBwbH-82" value="" style="shape=cylinder3;whiteSpace=wrap;html=1;boundedLbl=1;backgroundOutline=1;size=15;rotation=90;fillColor=#E6E6E6;strokeColor=#666666;" parent="1" vertex="1">
          <mxGeometry x="245.79633109382618" y="216.92493415845877" width="29.98452754252284" height="37.479641008666135" as="geometry" />
        </mxCell>
        <mxCell id="HvDBClcRX0wqVvIgBwbH-83" value="" style="shape=cylinder3;whiteSpace=wrap;html=1;boundedLbl=1;backgroundOutline=1;size=15;rotation=90;fillColor=#E6E6E6;strokeColor=#666666;" parent="1" vertex="1">
          <mxGeometry x="485.67255143400894" y="216.92493415845877" width="29.98452754252284" height="37.479641008666135" as="geometry" />
        </mxCell>
        <mxCell id="HvDBClcRX0wqVvIgBwbH-84" value="" style="shape=cylinder3;whiteSpace=wrap;html=1;boundedLbl=1;backgroundOutline=1;size=15;rotation=90;fillColor=#E6E6E6;strokeColor=#666666;" parent="1" vertex="1">
          <mxGeometry x="463.1841557771168" y="149.46158034285975" width="29.98452754252284" height="37.479641008666135" as="geometry" />
        </mxCell>
        <mxCell id="HvDBClcRX0wqVvIgBwbH-85" value="" style="shape=cylinder3;whiteSpace=wrap;html=1;boundedLbl=1;backgroundOutline=1;size=15;rotation=90;fillColor=#E6E6E6;strokeColor=#666666;" parent="1" vertex="1">
          <mxGeometry x="275.780858636349" y="119.47786753592685" width="29.98452754252284" height="37.479641008666135" as="geometry" />
        </mxCell>
        <mxCell id="HvDBClcRX0wqVvIgBwbH-86" value="" style="shape=cylinder3;whiteSpace=wrap;html=1;boundedLbl=1;backgroundOutline=1;size=15;rotation=90;fillColor=#E6E6E6;strokeColor=#666666;" parent="1" vertex="1">
          <mxGeometry x="643.0913210322539" y="164.45343674632625" width="29.98452754252284" height="37.479641008666135" as="geometry" />
        </mxCell>
        <mxCell id="HvDBClcRX0wqVvIgBwbH-87" value="" style="shape=cylinder3;whiteSpace=wrap;html=1;boundedLbl=1;backgroundOutline=1;size=15;rotation=90;fillColor=#E6E6E6;strokeColor=#666666;" parent="1" vertex="1">
          <mxGeometry x="523.1532108621625" y="134.46972393939333" width="29.98452754252284" height="37.479641008666135" as="geometry" />
        </mxCell>
        <mxCell id="HvDBClcRX0wqVvIgBwbH-88" value="" style="shape=cylinder3;whiteSpace=wrap;html=1;boundedLbl=1;backgroundOutline=1;size=15;rotation=90;fillColor=#E6E6E6;strokeColor=#666666;" parent="1" vertex="1">
          <mxGeometry x="275.780858636349" y="145.71361624199312" width="29.98452754252284" height="37.479641008666135" as="geometry" />
        </mxCell>
        <mxCell id="HvDBClcRX0wqVvIgBwbH-89" value="" style="shape=cylinder3;whiteSpace=wrap;html=1;boundedLbl=1;backgroundOutline=1;size=15;rotation=90;fillColor=#E6E6E6;strokeColor=#666666;" parent="1" vertex="1">
          <mxGeometry x="403.21510069207113" y="74.50229832552752" width="29.98452754252284" height="37.479641008666135" as="geometry" />
        </mxCell>
        <mxCell id="HvDBClcRX0wqVvIgBwbH-90" value="" style="shape=cylinder3;whiteSpace=wrap;html=1;boundedLbl=1;backgroundOutline=1;size=15;rotation=90;fillColor=#E6E6E6;strokeColor=#666666;" parent="1" vertex="1">
          <mxGeometry x="290.77312240761046" y="81.99822652726071" width="29.98452754252284" height="37.479641008666135" as="geometry" />
        </mxCell>
        <mxCell id="HvDBClcRX0wqVvIgBwbH-13" value="" style="shape=cylinder3;whiteSpace=wrap;html=1;boundedLbl=1;backgroundOutline=1;size=15;fillColor=#E6E6E6;strokeColor=#666666;" parent="1" vertex="1">
          <mxGeometry x="598.1145297184696" y="96.99008293072718" width="29.98452754252284" height="37.479641008666135" as="geometry" />
        </mxCell>
        <mxCell id="HvDBClcRX0wqVvIgBwbH-23" value="" style="shape=cylinder3;whiteSpace=wrap;html=1;boundedLbl=1;backgroundOutline=1;size=15;rotation=15;fillColor=#E6E6E6;strokeColor=#666666;" parent="1" vertex="1">
          <mxGeometry x="455.6880238914861" y="111.98193933419361" width="29.98452754252284" height="37.479641008666135" as="geometry" />
        </mxCell>
        <mxCell id="HvDBClcRX0wqVvIgBwbH-11" value="" style="shape=cylinder3;whiteSpace=wrap;html=1;boundedLbl=1;backgroundOutline=1;size=15;fillColor=#E6E6E6;strokeColor=#666666;" parent="1" vertex="1">
          <mxGeometry x="358.23830937828683" y="74.50229832552752" width="29.98452754252284" height="37.479641008666135" as="geometry" />
        </mxCell>
        <mxCell id="HvDBClcRX0wqVvIgBwbH-56" value="" style="shape=cylinder3;whiteSpace=wrap;html=1;boundedLbl=1;backgroundOutline=1;size=15;rotation=45;fillColor=#E6E6E6;strokeColor=#666666;" parent="1" vertex="1">
          <mxGeometry x="410.7112325777018" y="89.49415472899395" width="29.98452754252284" height="37.479641008666135" as="geometry" />
        </mxCell>
        <mxCell id="HvDBClcRX0wqVvIgBwbH-65" value="" style="shape=cylinder3;whiteSpace=wrap;html=1;boundedLbl=1;backgroundOutline=1;size=15;rotation=60;fillColor=#E6E6E6;strokeColor=#666666;" parent="1" vertex="1">
          <mxGeometry x="508.1609470909011" y="145.71361624199312" width="29.98452754252284" height="37.479641008666135" as="geometry" />
        </mxCell>
        <mxCell id="HvDBClcRX0wqVvIgBwbH-32" value="" style="shape=cylinder3;whiteSpace=wrap;html=1;boundedLbl=1;backgroundOutline=1;size=15;rotation=30;fillColor=#E6E6E6;strokeColor=#666666;" parent="1" vertex="1">
          <mxGeometry x="298.26925429324115" y="209.42900595672563" width="29.98452754252284" height="37.479641008666135" as="geometry" />
        </mxCell>
        <mxCell id="HvDBClcRX0wqVvIgBwbH-75" value="" style="shape=cylinder3;whiteSpace=wrap;html=1;boundedLbl=1;backgroundOutline=1;size=15;rotation=75;fillColor=#E6E6E6;strokeColor=#666666;" parent="1" vertex="1">
          <mxGeometry x="553.1377384046854" y="156.957508544593" width="29.98452754252284" height="37.479641008666135" as="geometry" />
        </mxCell>
        <mxCell id="HvDBClcRX0wqVvIgBwbH-25" value="" style="shape=cylinder3;whiteSpace=wrap;html=1;boundedLbl=1;backgroundOutline=1;size=15;rotation=30;fillColor=#E6E6E6;strokeColor=#666666;" parent="1" vertex="1">
          <mxGeometry x="178.3311441231498" y="201.93307775499238" width="29.98452754252284" height="37.479641008666135" as="geometry" />
        </mxCell>
        <mxCell id="HvDBClcRX0wqVvIgBwbH-33" value="" style="shape=cylinder3;whiteSpace=wrap;html=1;boundedLbl=1;backgroundOutline=1;size=15;rotation=30;fillColor=#E6E6E6;strokeColor=#666666;" parent="1" vertex="1">
          <mxGeometry x="530.6493427477932" y="201.93307775499238" width="29.98452754252284" height="37.479641008666135" as="geometry" />
        </mxCell>
        <mxCell id="HvDBClcRX0wqVvIgBwbH-49" value="" style="shape=cylinder3;whiteSpace=wrap;html=1;boundedLbl=1;backgroundOutline=1;size=15;rotation=45;fillColor=#E6E6E6;strokeColor=#666666;" parent="1" vertex="1">
          <mxGeometry x="590.6183978328389" y="209.42900595672563" width="29.98452754252284" height="37.479641008666135" as="geometry" />
        </mxCell>
        <mxCell id="HvDBClcRX0wqVvIgBwbH-7" value="" style="shape=cylinder3;whiteSpace=wrap;html=1;boundedLbl=1;backgroundOutline=1;size=15;fillColor=#E6E6E6;strokeColor=#666666;" parent="1" vertex="1">
          <mxGeometry x="245.79633109382618" y="179.44529314979263" width="29.98452754252284" height="37.479641008666135" as="geometry" />
        </mxCell>
        <mxCell id="HvDBClcRX0wqVvIgBwbH-62" value="" style="shape=cylinder3;whiteSpace=wrap;html=1;boundedLbl=1;backgroundOutline=1;size=15;rotation=60;fillColor=#E6E6E6;strokeColor=#666666;" parent="1" vertex="1">
          <mxGeometry x="658.0835848035152" y="198.18511365412576" width="29.98452754252284" height="37.479641008666135" as="geometry" />
        </mxCell>
        <mxCell id="HvDBClcRX0wqVvIgBwbH-2" value="" style="ellipse;whiteSpace=wrap;html=1;fillColor=none;" parent="1" vertex="1">
          <mxGeometry x="155.84274846625766" y="74.50229832552752" width="59.96905508504568" height="179.90227684159746" as="geometry" />
        </mxCell>
        <mxCell id="HvDBClcRX0wqVvIgBwbH-95" value="" style="curved=1;endArrow=classic;html=1;rounded=0;strokeColor=#F14C46;strokeWidth=2;" parent="1" edge="1">
          <mxGeometry width="50" height="50" relative="1" as="geometry">
            <mxPoint x="134.4883435582822" y="185.059186776474" as="sourcePoint" />
            <mxPoint x="242.04826515101084" y="194.43714955325913" as="targetPoint" />
            <Array as="points">
              <mxPoint x="184.32804963165438" y="188.44040699187258" />
              <mxPoint x="204.56760572285728" y="171.94936494805944" />
            </Array>
          </mxGeometry>
        </mxCell>
        <mxCell id="HvDBClcRX0wqVvIgBwbH-99" value="" style="curved=1;endArrow=classic;html=1;rounded=0;entryX=0.263;entryY=0.04;entryDx=0;entryDy=0;entryPerimeter=0;strokeColor=#366FE0;strokeWidth=2;" parent="1" edge="1">
          <mxGeometry width="50" height="50" relative="1" as="geometry">
            <mxPoint x="134.4883435582822" y="96.08305952346464" as="sourcePoint" />
            <mxPoint x="321.14744880818614" y="126.69345883294652" as="targetPoint" />
            <Array as="points">
              <mxPoint x="182.45401666024668" y="93.71137474532034" />
              <mxPoint x="202.6935727514496" y="110.20241678913344" />
              <mxPoint x="245.79633109382618" y="80.21870398220052" />
              <mxPoint x="283.27699052197977" y="117.69834499086666" />
            </Array>
          </mxGeometry>
        </mxCell>
        <mxCell id="HvDBClcRX0wqVvIgBwbH-100" value="" style="curved=1;endArrow=classic;html=1;rounded=0;entryX=1;entryY=0;entryDx=0;entryDy=30;entryPerimeter=0;strokeColor=#366FE0;strokeWidth=2;" parent="1" target="HvDBClcRX0wqVvIgBwbH-20" edge="1">
          <mxGeometry width="50" height="50" relative="1" as="geometry">
            <mxPoint x="134.4883435582822" y="156.58682605551098" as="sourcePoint" />
            <mxPoint x="240.1742321796032" y="145.71361624199312" as="targetPoint" />
            <Array as="points">
              <mxPoint x="178.3311441231498" y="156.957508544593" />
              <mxPoint x="202.6935727514496" y="168.20140084719287" />
              <mxPoint x="245.79633109382618" y="168.20140084719287" />
              <mxPoint x="283.27699052197977" y="179.44529314979263" />
              <mxPoint x="298.26925429324115" y="194.43714955325913" />
            </Array>
          </mxGeometry>
        </mxCell>
        <mxCell id="HvDBClcRX0wqVvIgBwbH-101" value="" style="curved=1;endArrow=classic;html=1;rounded=0;strokeColor=#F14C46;strokeWidth=2;" parent="1" edge="1">
          <mxGeometry width="50" height="50" relative="1" as="geometry">
            <mxPoint x="134.4883435582822" y="131.6735104246684" as="sourcePoint" />
            <mxPoint x="271.0957762078299" y="135.26716310979043" as="targetPoint" />
            <Array as="points">
              <mxPoint x="170.07901840490797" y="135.23255551478877" />
              <mxPoint x="202.11062576687118" y="122.77589769936746" />
              <mxPoint x="250.15803680981594" y="135.23255551478877" />
            </Array>
          </mxGeometry>
        </mxCell>
        <mxCell id="HvDBClcRX0wqVvIgBwbH-102" value="" style="curved=1;endArrow=classic;html=1;rounded=0;entryX=0.145;entryY=1;entryDx=0;entryDy=-4.35;entryPerimeter=0;strokeColor=#366FE0;strokeWidth=2;" parent="1" edge="1">
          <mxGeometry width="50" height="50" relative="1" as="geometry">
            <mxPoint x="134.4883435582822" y="225.09844404032822" as="sourcePoint" />
            <mxPoint x="336.2465681725572" y="200.02373045259964" as="targetPoint" />
            <Array as="points">
              <mxPoint x="177.11541543325282" y="224.7011992649056" />
              <mxPoint x="197.35497152445572" y="241.19224130871868" />
              <mxPoint x="240.45772986683232" y="218.70445670351893" />
              <mxPoint x="285.43452118061657" y="233.69631310698543" />
              <mxPoint x="307.92291683750875" y="211.2085285017858" />
            </Array>
          </mxGeometry>
        </mxCell>
        <mxCell id="HvDBClcRX0wqVvIgBwbH-103" value="" style="curved=1;endArrow=classic;html=1;rounded=0;strokeColor=#F14C46;strokeWidth=2;" parent="1" edge="1">
          <mxGeometry width="50" height="50" relative="1" as="geometry">
            <mxPoint x="326.3797488643563" y="190.6891854523925" as="sourcePoint" />
            <mxPoint x="435.07366120600165" y="183.19325725065926" as="targetPoint" />
            <Array as="points">
              <mxPoint x="377.3534456866452" y="189.1899998120458" />
              <mxPoint x="397.5930017778481" y="205.681041855859" />
            </Array>
          </mxGeometry>
        </mxCell>
        <mxCell id="HvDBClcRX0wqVvIgBwbH-104" value="" style="curved=1;endArrow=classic;html=1;rounded=0;entryX=0.263;entryY=0.04;entryDx=0;entryDy=0;entryPerimeter=0;strokeColor=#366FE0;strokeWidth=2;" parent="1" edge="1">
          <mxGeometry width="50" height="50" relative="1" as="geometry">
            <mxPoint x="260.40629213892043" y="153.95913726389972" as="sourcePoint" />
            <mxPoint x="450.0734211091487" y="122.47623881662017" as="targetPoint" />
            <Array as="points">
              <mxPoint x="311.3799889612093" y="155.45832290424636" />
              <mxPoint x="331.6195450524122" y="138.96728086043325" />
              <mxPoint x="374.7223033947888" y="168.95099366736616" />
              <mxPoint x="412.20296282294237" y="131.47135265870003" />
            </Array>
          </mxGeometry>
        </mxCell>
        <mxCell id="HvDBClcRX0wqVvIgBwbH-105" value="" style="curved=1;endArrow=classic;html=1;rounded=0;entryX=0.5;entryY=1;entryDx=0;entryDy=0;entryPerimeter=0;strokeColor=#47A823;fillColor=#d5e8d4;strokeWidth=2;" parent="1" target="HvDBClcRX0wqVvIgBwbH-65" edge="1">
          <mxGeometry width="50" height="50" relative="1" as="geometry">
            <mxPoint x="344.1830620927293" y="168.20140084719287" as="sourcePoint" />
            <mxPoint x="484.7355349483051" y="156.16006937419587" as="targetPoint" />
            <Array as="points">
              <mxPoint x="373.23057314954826" y="141.96565214112655" />
              <mxPoint x="425.70349634896326" y="141.96565214112655" />
              <mxPoint x="470.6802876627475" y="149.46158034285975" />
              <mxPoint x="485.67255143400894" y="171.94936494805944" />
            </Array>
          </mxGeometry>
        </mxCell>
        <mxCell id="HvDBClcRX0wqVvIgBwbH-106" value="" style="curved=1;endArrow=classic;html=1;rounded=0;strokeColor=#F14C46;strokeWidth=2;" parent="1" edge="1">
          <mxGeometry width="50" height="50" relative="1" as="geometry">
            <mxPoint x="328.6285884300455" y="119.47786753592685" as="sourcePoint" />
            <mxPoint x="469.18106128562135" y="107.4365360629299" as="targetPoint" />
            <Array as="points">
              <mxPoint x="371.7313467724221" y="130.7217598385267" />
              <mxPoint x="399.8418413435373" y="104.48601113246043" />
              <mxPoint x="439.19653374309854" y="115.72990343506024" />
            </Array>
          </mxGeometry>
        </mxCell>
        <mxCell id="HvDBClcRX0wqVvIgBwbH-107" value="" style="curved=1;endArrow=classic;html=1;rounded=0;entryX=0.145;entryY=1;entryDx=0;entryDy=-4.35;entryPerimeter=0;strokeColor=#366FE0;strokeWidth=2;" parent="1" edge="1">
          <mxGeometry width="50" height="50" relative="1" as="geometry">
            <mxPoint x="320.8476035327609" y="221.26014770574886" as="sourcePoint" />
            <mxPoint x="530.64742318801" y="246.90864696539148" as="targetPoint" />
            <Array as="points">
              <mxPoint x="371.82130035504974" y="222.75933334609545" />
              <mxPoint x="392.0608564462526" y="206.26829130228236" />
              <mxPoint x="435.1636147886292" y="228.7560759074821" />
              <mxPoint x="480.1404061024135" y="213.7642195040156" />
              <mxPoint x="502.62880175930565" y="236.25200410921536" />
            </Array>
          </mxGeometry>
        </mxCell>
        <mxCell id="HvDBClcRX0wqVvIgBwbH-108" value="" style="curved=1;endArrow=classic;html=1;rounded=0;exitX=1;exitY=0;exitDx=0;exitDy=30;exitPerimeter=0;strokeColor=#F14C46;strokeWidth=2;" parent="1" edge="1">
          <mxGeometry width="50" height="50" relative="1" as="geometry">
            <mxPoint x="457.6419669164788" y="202.44105396887858" as="sourcePoint" />
            <mxPoint x="650.7298794237116" y="192.93796391291244" as="targetPoint" />
            <Array as="points">
              <mxPoint x="494.6679096967658" y="189.1899998120458" />
              <mxPoint x="524.6524372392887" y="202.68267057516567" />
              <mxPoint x="562.1330966674423" y="192.93796391291244" />
              <mxPoint x="593.0096639043552" y="186.94122135152588" />
              <mxPoint x="614.6060198668572" y="177.94610750944605" />
            </Array>
          </mxGeometry>
        </mxCell>
        <mxCell id="HvDBClcRX0wqVvIgBwbH-109" value="" style="curved=1;endArrow=classic;html=1;rounded=0;exitX=0.855;exitY=0;exitDx=0;exitDy=4.35;exitPerimeter=0;strokeColor=#F14C46;fillColor=#d5e8d4;strokeWidth=2;" parent="1" edge="1">
          <mxGeometry width="50" height="50" relative="1" as="geometry">
            <mxPoint x="510.87646639328256" y="130.8841032122766" as="sourcePoint" />
            <mxPoint x="740.5410355454532" y="120.22746035610017" as="targetPoint" />
            <Array as="points">
              <mxPoint x="538.8950878219871" y="112.73153215436697" />
              <mxPoint x="576.3757472501404" y="97.73967575090049" />
              <mxPoint x="610.6255738355873" y="112.73153215436697" />
              <mxPoint x="653.7283321779638" y="82.74781934743407" />
              <mxPoint x="691.2089916061175" y="120.22746035610017" />
            </Array>
          </mxGeometry>
        </mxCell>
        <mxCell id="HvDBClcRX0wqVvIgBwbH-110" value="" style="curved=1;endArrow=classic;html=1;rounded=0;strokeColor=#47A823;fillColor=#d5e8d4;strokeWidth=2;" parent="1" edge="1">
          <mxGeometry width="50" height="50" relative="1" as="geometry">
            <mxPoint x="546.1588396191632" y="153.20954444372637" as="sourcePoint" />
            <mxPoint x="686.711312474739" y="165.25087591672332" as="targetPoint" />
            <Array as="points">
              <mxPoint x="593.0096639043552" y="156.957508544593" />
              <mxPoint x="617.372092532655" y="168.20140084719287" />
            </Array>
          </mxGeometry>
        </mxCell>
        <mxCell id="HvDBClcRX0wqVvIgBwbH-111" value="" style="curved=1;endArrow=classic;html=1;rounded=0;strokeColor=#366FE0;strokeWidth=2;" parent="1" target="HvDBClcRX0wqVvIgBwbH-69" edge="1">
          <mxGeometry width="50" height="50" relative="1" as="geometry">
            <mxPoint x="480.05045251978595" y="89.49415472899395" as="sourcePoint" />
            <mxPoint x="620.6029253753617" y="101.5354862019909" as="targetPoint" />
            <Array as="points">
              <mxPoint x="526.9012768049779" y="93.24211882986057" />
              <mxPoint x="551.2637054332777" y="104.48601113246043" />
              <mxPoint x="605.6106616041003" y="149.46158034285975" />
            </Array>
          </mxGeometry>
        </mxCell>
        <mxCell id="HvDBClcRX0wqVvIgBwbH-112" value="" style="curved=1;endArrow=classic;html=1;rounded=0;strokeColor=#366FE0;strokeWidth=2;" parent="1" edge="1">
          <mxGeometry width="50" height="50" relative="1" as="geometry">
            <mxPoint x="515.7470325591594" y="220.0882158595902" as="sourcePoint" />
            <mxPoint x="740.5410355454532" y="204.93144903568572" as="targetPoint" />
            <Array as="points">
              <mxPoint x="560.633870290316" y="239.41271876365846" />
              <mxPoint x="575.6261340615774" y="231.9167905619252" />
              <mxPoint x="620.6029253753617" y="171.94936494805944" />
              <mxPoint x="675.039835128812" y="227.58414406132346" />
              <mxPoint x="697.5282307857041" y="205.09635945612382" />
            </Array>
          </mxGeometry>
        </mxCell>
        <mxCell id="HvDBClcRX0wqVvIgBwbH-113" value="" style="curved=1;endArrow=classic;html=1;rounded=0;strokeColor=#47A823;fillColor=#d5e8d4;strokeWidth=2;" parent="1" edge="1">
          <mxGeometry width="50" height="50" relative="1" as="geometry">
            <mxPoint x="613.106793489731" y="138.21768804025993" as="sourcePoint" />
            <mxPoint x="740.5410355454532" y="149.46158034285975" as="targetPoint" />
            <Array as="points">
              <mxPoint x="643.0913210322539" y="149.46158034285975" />
              <mxPoint x="664.0804903120198" y="139.71687368060657" />
              <mxPoint x="684.3200464032228" y="123.22583163679347" />
              <mxPoint x="710.5565080029303" y="149.46158034285975" />
            </Array>
          </mxGeometry>
        </mxCell>
        <mxCell id="HvDBClcRX0wqVvIgBwbH-115" value="" style="curved=1;endArrow=classic;html=1;rounded=0;strokeColor=#47A823;fillColor=#d5e8d4;strokeWidth=2;" parent="1" edge="1">
          <mxGeometry width="50" height="50" relative="1" as="geometry">
            <mxPoint x="665.5773044658071" y="186.941221351526" as="sourcePoint" />
            <mxPoint x="739.5298159509202" y="185.059186776474" as="targetPoint" />
            <Array as="points">
              <mxPoint x="695.041472392638" y="194.84656077430503" />
              <mxPoint x="712.8368098159509" y="185.059186776474" />
            </Array>
          </mxGeometry>
        </mxCell>
        <mxCell id="HvDBClcRX0wqVvIgBwbH-116" value="C&lt;sub&gt;2&lt;/sub&gt;H&lt;sub&gt;4&lt;/sub&gt;" style="text;html=1;align=center;verticalAlign=middle;resizable=0;points=[];autosize=1;strokeColor=#6c8ebf;fillColor=#dae8fc;" parent="1" vertex="1">
          <mxGeometry x="90" y="145.2601650562029" width="50" height="30" as="geometry" />
        </mxCell>
        <mxCell id="HvDBClcRX0wqVvIgBwbH-117" value="C&lt;sub&gt;2&lt;/sub&gt;H&lt;sub&gt;4&lt;/sub&gt;O" style="text;html=1;align=center;verticalAlign=middle;resizable=0;points=[];autosize=1;strokeColor=#82b366;fillColor=#d5e8d4;" parent="1" vertex="1">
          <mxGeometry x="739.5298159509202" y="137.7594775287742" width="60" height="30" as="geometry" />
        </mxCell>
        <mxCell id="HvDBClcRX0wqVvIgBwbH-118" value="O&lt;sub&gt;2&lt;/sub&gt;" style="text;html=1;align=center;verticalAlign=middle;resizable=0;points=[];autosize=1;strokeColor=#b85450;fillColor=#f8cecc;" parent="1" vertex="1">
          <mxGeometry x="98.89766871165644" y="171.9530032321057" width="40" height="30" as="geometry" />
        </mxCell>
        <mxCell id="HvDBClcRX0wqVvIgBwbH-119" value="CO&lt;sub&gt;2&lt;/sub&gt; &amp;amp; H&lt;sub&gt;2&lt;/sub&gt;O" style="text;html=1;align=center;verticalAlign=middle;resizable=0;points=[];autosize=1;strokeColor=#9673a6;fillColor=#e1d5e7;" parent="1" vertex="1">
          <mxGeometry x="735.080981595092" y="214.8217013426056" width="90" height="30" as="geometry" />
        </mxCell>
        <mxCell id="HvDBClcRX0wqVvIgBwbH-120" value="" style="curved=1;endArrow=classic;html=1;rounded=0;exitX=1;exitY=0.5;exitDx=0;exitDy=0;exitPerimeter=0;strokeColor=#9673a6;fillColor=#e1d5e7;entryX=0;entryY=0.652;entryDx=0;entryDy=0;entryPerimeter=0;strokeWidth=2;" parent="1" target="HvDBClcRX0wqVvIgBwbH-119" edge="1">
          <mxGeometry width="50" height="50" relative="1" as="geometry">
            <mxPoint x="585.2807175606431" y="206.51417899426633" as="sourcePoint" />
            <mxPoint x="737.747167569993" y="233.20044912924618" as="targetPoint" />
            <Array as="points">
              <mxPoint x="597.1671165644171" y="211.75202495237681" />
              <mxPoint x="617.6317546012269" y="207.30321858972638" />
              <mxPoint x="644.3247607361963" y="233.9960567656292" />
              <mxPoint x="679.915435582822" y="242.8936694909301" />
              <mxPoint x="706.6084417177914" y="233.10629549309908" />
            </Array>
          </mxGeometry>
        </mxCell>
        <mxCell id="HvDBClcRX0wqVvIgBwbH-126" value="" style="ellipse;whiteSpace=wrap;html=1;aspect=fixed;strokeColor=#000000;fillColor=none;" parent="1" vertex="1">
          <mxGeometry x="338.75" y="162.26" width="10" height="10" as="geometry" />
        </mxCell>
        <mxCell id="HvDBClcRX0wqVvIgBwbH-130" value="" style="endArrow=none;html=1;rounded=0;strokeColor=#000000;strokeWidth=1;entryX=0;entryY=0;entryDx=0;entryDy=0;exitX=0.025;exitY=0.348;exitDx=0;exitDy=0;exitPerimeter=0;" parent="1" source="HvDBClcRX0wqVvIgBwbH-132" target="HvDBClcRX0wqVvIgBwbH-126" edge="1">
          <mxGeometry width="50" height="50" relative="1" as="geometry">
            <mxPoint x="188" y="319.39" as="sourcePoint" />
            <mxPoint x="408" y="249.39" as="targetPoint" />
          </mxGeometry>
        </mxCell>
        <mxCell id="HvDBClcRX0wqVvIgBwbH-131" value="" style="endArrow=none;html=1;rounded=0;strokeColor=#000000;strokeWidth=1;exitX=1;exitY=0;exitDx=0;exitDy=0;entryX=1;entryY=0;entryDx=0;entryDy=0;" parent="1" source="HvDBClcRX0wqVvIgBwbH-126" target="HvDBClcRX0wqVvIgBwbH-132" edge="1">
          <mxGeometry width="50" height="50" relative="1" as="geometry">
            <mxPoint x="348.75" y="164.44999999999987" as="sourcePoint" />
            <mxPoint x="708" y="339.39" as="targetPoint" />
          </mxGeometry>
        </mxCell>
        <mxCell id="HvDBClcRX0wqVvIgBwbH-132" value="" style="ellipse;whiteSpace=wrap;html=1;strokeColor=#000000;fillColor=none;" parent="1" vertex="1">
          <mxGeometry x="188" y="299.39" width="520" height="290" as="geometry" />
        </mxCell>
        <mxCell id="HvDBClcRX0wqVvIgBwbH-133" value="" style="verticalLabelPosition=bottom;verticalAlign=top;html=1;shape=mxgraph.basic.polygon;polyCoords=[[0.04,0.5],[0.96,0.5],[0.88,0.72],[0.75,0.89],[0.58,1],[0.42,1],[0.25,0.89],[0.12,0.72]];polyline=0;strokeColor=#000000;fillColor=#E6E6E6;" parent="1" vertex="1">
          <mxGeometry x="188" y="409.39" width="520" height="180" as="geometry" />
        </mxCell>
        <mxCell id="HvDBClcRX0wqVvIgBwbH-134" value="" style="shape=cylinder3;whiteSpace=wrap;html=1;boundedLbl=1;backgroundOutline=1;size=2.5;strokeColor=#000000;fillColor=#CCCCCC;rotation=-180;" parent="1" vertex="1">
          <mxGeometry x="415.7" y="499.39" width="32.7" height="70" as="geometry" />
        </mxCell>
        <mxCell id="HvDBClcRX0wqVvIgBwbH-135" value="" style="shape=cylinder3;whiteSpace=wrap;html=1;boundedLbl=1;backgroundOutline=1;size=3.5;strokeColor=#000000;fillColor=#CCCCCC;rotation=-180;" parent="1" vertex="1">
          <mxGeometry x="543.28" y="499.39" width="22.36" height="70" as="geometry" />
        </mxCell>
        <mxCell id="HvDBClcRX0wqVvIgBwbH-136" value="" style="shape=cylinder3;whiteSpace=wrap;html=1;boundedLbl=1;backgroundOutline=1;size=3.5;strokeColor=#000000;fillColor=#CCCCCC;rotation=-180;" parent="1" vertex="1">
          <mxGeometry x="460.68" y="499.39" width="22.68" height="80" as="geometry" />
        </mxCell>
        <mxCell id="HvDBClcRX0wqVvIgBwbH-137" value="" style="shape=cylinder3;whiteSpace=wrap;html=1;boundedLbl=1;backgroundOutline=1;size=3.5;strokeColor=#000000;fillColor=#CCCCCC;rotation=-180;" parent="1" vertex="1">
          <mxGeometry x="290.77" y="499.39" width="32.77" height="50" as="geometry" />
        </mxCell>
        <mxCell id="HvDBClcRX0wqVvIgBwbH-138" value="" style="shape=cylinder3;whiteSpace=wrap;html=1;boundedLbl=1;backgroundOutline=1;size=3.5;strokeColor=#000000;fillColor=#CCCCCC;rotation=-180;" parent="1" vertex="1">
          <mxGeometry x="358.24" y="499.39" width="20" height="40" as="geometry" />
        </mxCell>
        <mxCell id="HvDBClcRX0wqVvIgBwbH-139" value="" style="shape=cylinder3;whiteSpace=wrap;html=1;boundedLbl=1;backgroundOutline=1;size=3.5;strokeColor=#000000;fillColor=#CCCCCC;rotation=-180;" parent="1" vertex="1">
          <mxGeometry x="383.22" y="499.39" width="25.22" height="30" as="geometry" />
        </mxCell>
        <mxCell id="HvDBClcRX0wqVvIgBwbH-140" value="" style="shape=cylinder3;whiteSpace=wrap;html=1;boundedLbl=1;backgroundOutline=1;size=3.5;strokeColor=#000000;fillColor=#CCCCCC;rotation=-180;" parent="1" vertex="1">
          <mxGeometry x="608.2" y="499.39" width="32.51" height="40" as="geometry" />
        </mxCell>
        <mxCell id="HvDBClcRX0wqVvIgBwbH-141" value="" style="shape=cylinder3;whiteSpace=wrap;html=1;boundedLbl=1;backgroundOutline=1;size=1.5;strokeColor=#000000;fillColor=#CCCCCC;rotation=-180;" parent="1" vertex="1">
          <mxGeometry x="523.54" y="499.39" width="9.84" height="30" as="geometry" />
        </mxCell>
        <mxCell id="HvDBClcRX0wqVvIgBwbH-142" value="" style="curved=1;endArrow=classic;html=1;rounded=0;strokeColor=#000000;strokeWidth=0.5;endSize=3;" parent="1" edge="1">
          <mxGeometry width="50" height="50" relative="1" as="geometry">
            <mxPoint x="199.82" y="419.39" as="sourcePoint" />
            <mxPoint x="289.82" y="439.39" as="targetPoint" />
            <Array as="points">
              <mxPoint x="249.82" y="429.39" />
              <mxPoint x="279.82" y="399.39" />
              <mxPoint x="299.82" y="419.39" />
            </Array>
          </mxGeometry>
        </mxCell>
        <mxCell id="HvDBClcRX0wqVvIgBwbH-143" value="" style="curved=1;endArrow=classic;html=1;rounded=0;strokeColor=#000000;strokeWidth=0.5;endSize=3;" parent="1" edge="1">
          <mxGeometry width="50" height="50" relative="1" as="geometry">
            <mxPoint x="268.28" y="391.39" as="sourcePoint" />
            <mxPoint x="318.28" y="376.39" as="targetPoint" />
            <Array as="points">
              <mxPoint x="288.96" y="393.39" />
              <mxPoint x="299.96" y="415.39" />
              <mxPoint x="326.96" y="411.39" />
              <mxPoint x="338.28" y="386.39" />
            </Array>
          </mxGeometry>
        </mxCell>
        <mxCell id="HvDBClcRX0wqVvIgBwbH-145" value="" style="curved=1;endArrow=classic;html=1;rounded=0;strokeColor=#000000;strokeWidth=0.5;endSize=3;" parent="1" edge="1">
          <mxGeometry width="50" height="50" relative="1" as="geometry">
            <mxPoint x="352.13" y="415.39" as="sourcePoint" />
            <mxPoint x="442.13" y="395.39" as="targetPoint" />
            <Array as="points">
              <mxPoint x="402.13" y="405.39" />
              <mxPoint x="432.13" y="435.39" />
              <mxPoint x="452.13" y="415.39" />
            </Array>
          </mxGeometry>
        </mxCell>
        <mxCell id="HvDBClcRX0wqVvIgBwbH-146" value="" style="curved=1;endArrow=classic;html=1;rounded=0;strokeColor=#000000;strokeWidth=0.5;endSize=3;" parent="1" edge="1">
          <mxGeometry width="50" height="50" relative="1" as="geometry">
            <mxPoint x="425.44999999999993" y="443.39" as="sourcePoint" />
            <mxPoint x="475.44999999999993" y="458.39" as="targetPoint" />
            <Array as="points">
              <mxPoint x="446.13" y="441.39" />
              <mxPoint x="457.13" y="419.39" />
              <mxPoint x="484.13" y="423.39" />
              <mxPoint x="495.45" y="448.39" />
            </Array>
          </mxGeometry>
        </mxCell>
        <mxCell id="HvDBClcRX0wqVvIgBwbH-147" value="" style="curved=1;endArrow=classic;html=1;rounded=0;strokeColor=#000000;strokeWidth=0.5;endSize=3;" parent="1" edge="1">
          <mxGeometry width="50" height="50" relative="1" as="geometry">
            <mxPoint x="465.13" y="449.39" as="sourcePoint" />
            <mxPoint x="525.13" y="439.39" as="targetPoint" />
            <Array as="points">
              <mxPoint x="455.13" y="469.39" />
              <mxPoint x="477.13" y="489.39" />
              <mxPoint x="505.13" y="479.39" />
              <mxPoint x="505.13" y="449.39" />
            </Array>
          </mxGeometry>
        </mxCell>
        <mxCell id="HvDBClcRX0wqVvIgBwbH-150" value="" style="curved=1;endArrow=classic;html=1;rounded=0;strokeColor=#000000;strokeWidth=0.5;endSize=3;" parent="1" edge="1">
          <mxGeometry width="50" height="50" relative="1" as="geometry">
            <mxPoint x="482.64" y="419.39" as="sourcePoint" />
            <mxPoint x="572.64" y="439.39" as="targetPoint" />
            <Array as="points">
              <mxPoint x="532.64" y="429.39" />
              <mxPoint x="562.64" y="399.39" />
              <mxPoint x="582.64" y="419.39" />
            </Array>
          </mxGeometry>
        </mxCell>
        <mxCell id="HvDBClcRX0wqVvIgBwbH-151" value="" style="curved=1;endArrow=classic;html=1;rounded=0;strokeColor=#000000;strokeWidth=0.5;endSize=3;" parent="1" edge="1">
          <mxGeometry width="50" height="50" relative="1" as="geometry">
            <mxPoint x="562.9599999999999" y="395.39" as="sourcePoint" />
            <mxPoint x="612.9599999999999" y="380.39" as="targetPoint" />
            <Array as="points">
              <mxPoint x="583.64" y="397.39" />
              <mxPoint x="594.64" y="419.39" />
              <mxPoint x="621.64" y="415.39" />
              <mxPoint x="632.96" y="390.39" />
            </Array>
          </mxGeometry>
        </mxCell>
        <mxCell id="HvDBClcRX0wqVvIgBwbH-152" value="" style="curved=1;endArrow=classic;html=1;rounded=0;strokeColor=#000000;strokeWidth=0.5;endSize=3;" parent="1" edge="1">
          <mxGeometry width="50" height="50" relative="1" as="geometry">
            <mxPoint x="602.64" y="389.39" as="sourcePoint" />
            <mxPoint x="662.64" y="399.39" as="targetPoint" />
            <Array as="points">
              <mxPoint x="592.64" y="369.39" />
              <mxPoint x="614.64" y="349.39" />
              <mxPoint x="642.64" y="359.39" />
              <mxPoint x="642.64" y="389.39" />
            </Array>
          </mxGeometry>
        </mxCell>
        <mxCell id="HvDBClcRX0wqVvIgBwbH-165" value="" style="curved=1;endArrow=classic;html=1;rounded=0;strokeColor=#000000;strokeWidth=0.5;endSize=3;" parent="1" edge="1">
          <mxGeometry width="50" height="50" relative="1" as="geometry">
            <mxPoint x="512.16" y="466.39" as="sourcePoint" />
            <mxPoint x="537.16" y="473.89" as="targetPoint" />
            <Array as="points">
              <mxPoint x="522.5" y="465.39" />
              <mxPoint x="528" y="454.39" />
              <mxPoint x="541.5" y="456.39" />
              <mxPoint x="547.16" y="468.89" />
            </Array>
          </mxGeometry>
        </mxCell>
        <mxCell id="HvDBClcRX0wqVvIgBwbH-166" value="" style="curved=1;endArrow=classic;html=1;rounded=0;strokeColor=#000000;strokeWidth=0.5;endSize=3;" parent="1" edge="1">
          <mxGeometry width="50" height="50" relative="1" as="geometry">
            <mxPoint x="532" y="469.39" as="sourcePoint" />
            <mxPoint x="562" y="464.39" as="targetPoint" />
            <Array as="points">
              <mxPoint x="527" y="479.39" />
              <mxPoint x="538" y="489.39" />
              <mxPoint x="552" y="484.39" />
              <mxPoint x="552" y="469.39" />
            </Array>
          </mxGeometry>
        </mxCell>
        <mxCell id="HvDBClcRX0wqVvIgBwbH-167" value="" style="curved=1;endArrow=classic;html=1;rounded=0;strokeColor=#000000;strokeWidth=0.5;endSize=3;" parent="1" edge="1">
          <mxGeometry width="50" height="50" relative="1" as="geometry">
            <mxPoint x="544.6550000000001" y="454.39" as="sourcePoint" />
            <mxPoint x="589.6550000000001" y="464.39" as="targetPoint" />
            <Array as="points">
              <mxPoint x="569.655" y="459.39" />
              <mxPoint x="584.655" y="444.39" />
              <mxPoint x="594.655" y="454.39" />
            </Array>
          </mxGeometry>
        </mxCell>
        <mxCell id="HvDBClcRX0wqVvIgBwbH-168" value="" style="curved=1;endArrow=classic;html=1;rounded=0;strokeColor=#000000;strokeWidth=0.5;endSize=3;" parent="1" edge="1">
          <mxGeometry width="50" height="50" relative="1" as="geometry">
            <mxPoint x="584.8149999999999" y="442.39" as="sourcePoint" />
            <mxPoint x="609.8149999999999" y="434.89" as="targetPoint" />
            <Array as="points">
              <mxPoint x="595.155" y="443.39" />
              <mxPoint x="600.655" y="454.39" />
              <mxPoint x="614.155" y="452.39" />
              <mxPoint x="619.815" y="439.89" />
            </Array>
          </mxGeometry>
        </mxCell>
        <mxCell id="HvDBClcRX0wqVvIgBwbH-169" value="" style="curved=1;endArrow=classic;html=1;rounded=0;strokeColor=#000000;strokeWidth=0.5;endSize=3;" parent="1" edge="1">
          <mxGeometry width="50" height="50" relative="1" as="geometry">
            <mxPoint x="604.6550000000001" y="439.39" as="sourcePoint" />
            <mxPoint x="634.6550000000001" y="444.39" as="targetPoint" />
            <Array as="points">
              <mxPoint x="599.655" y="429.39" />
              <mxPoint x="610.655" y="419.39" />
              <mxPoint x="624.655" y="424.39" />
              <mxPoint x="624.655" y="439.39" />
            </Array>
          </mxGeometry>
        </mxCell>
        <mxCell id="HvDBClcRX0wqVvIgBwbH-153" value="" style="curved=1;endArrow=classic;html=1;rounded=0;strokeColor=#000000;strokeWidth=0.5;endSize=3;" parent="1" edge="1">
          <mxGeometry width="50" height="50" relative="1" as="geometry">
            <mxPoint x="191.99999999999997" y="454.39" as="sourcePoint" />
            <mxPoint x="236.99999999999997" y="444.39" as="targetPoint" />
            <Array as="points">
              <mxPoint x="217" y="449.39" />
              <mxPoint x="232" y="464.39" />
              <mxPoint x="242" y="454.39" />
            </Array>
          </mxGeometry>
        </mxCell>
        <mxCell id="HvDBClcRX0wqVvIgBwbH-154" value="" style="curved=1;endArrow=classic;html=1;rounded=0;strokeColor=#000000;strokeWidth=0.5;endSize=3;" parent="1" edge="1">
          <mxGeometry width="50" height="50" relative="1" as="geometry">
            <mxPoint x="232.15999999999994" y="466.39" as="sourcePoint" />
            <mxPoint x="257.15999999999997" y="473.89" as="targetPoint" />
            <Array as="points">
              <mxPoint x="242.5" y="465.39" />
              <mxPoint x="248" y="454.39" />
              <mxPoint x="261.5" y="456.39" />
              <mxPoint x="267.15999999999997" y="468.89" />
            </Array>
          </mxGeometry>
        </mxCell>
        <mxCell id="HvDBClcRX0wqVvIgBwbH-155" value="" style="curved=1;endArrow=classic;html=1;rounded=0;strokeColor=#000000;strokeWidth=0.5;endSize=3;" parent="1" edge="1">
          <mxGeometry width="50" height="50" relative="1" as="geometry">
            <mxPoint x="251.99999999999997" y="469.39" as="sourcePoint" />
            <mxPoint x="282" y="464.39" as="targetPoint" />
            <Array as="points">
              <mxPoint x="247" y="479.39" />
              <mxPoint x="258" y="489.39" />
              <mxPoint x="272" y="484.39" />
              <mxPoint x="272" y="469.39" />
            </Array>
          </mxGeometry>
        </mxCell>
        <mxCell id="HvDBClcRX0wqVvIgBwbH-156" value="" style="curved=1;endArrow=classic;html=1;rounded=0;strokeColor=#000000;strokeWidth=0.5;endSize=3;" parent="1" edge="1">
          <mxGeometry width="50" height="50" relative="1" as="geometry">
            <mxPoint x="264.6550000000001" y="454.39" as="sourcePoint" />
            <mxPoint x="309.6550000000001" y="464.39" as="targetPoint" />
            <Array as="points">
              <mxPoint x="289.655" y="459.39" />
              <mxPoint x="304.655" y="444.39" />
              <mxPoint x="314.655" y="454.39" />
            </Array>
          </mxGeometry>
        </mxCell>
        <mxCell id="HvDBClcRX0wqVvIgBwbH-157" value="" style="curved=1;endArrow=classic;html=1;rounded=0;strokeColor=#000000;strokeWidth=0.5;endSize=3;" parent="1" edge="1">
          <mxGeometry width="50" height="50" relative="1" as="geometry">
            <mxPoint x="304.81499999999994" y="442.39" as="sourcePoint" />
            <mxPoint x="329.81499999999994" y="434.89" as="targetPoint" />
            <Array as="points">
              <mxPoint x="315.155" y="443.39" />
              <mxPoint x="320.655" y="454.39" />
              <mxPoint x="334.155" y="452.39" />
              <mxPoint x="339.815" y="439.89" />
            </Array>
          </mxGeometry>
        </mxCell>
        <mxCell id="HvDBClcRX0wqVvIgBwbH-158" value="" style="curved=1;endArrow=classic;html=1;rounded=0;strokeColor=#000000;strokeWidth=0.5;endSize=3;" parent="1" edge="1">
          <mxGeometry width="50" height="50" relative="1" as="geometry">
            <mxPoint x="325.6550000000001" y="429.39" as="sourcePoint" />
            <mxPoint x="355.6550000000001" y="434.39" as="targetPoint" />
            <Array as="points">
              <mxPoint x="320.655" y="419.39" />
              <mxPoint x="331.655" y="409.39" />
              <mxPoint x="345.655" y="414.39" />
              <mxPoint x="345.655" y="429.39" />
            </Array>
          </mxGeometry>
        </mxCell>
        <mxCell id="HvDBClcRX0wqVvIgBwbH-177" value="" style="curved=1;endArrow=classic;html=1;rounded=0;strokeColor=#000000;strokeWidth=0.5;endSize=3;" parent="1" edge="1">
          <mxGeometry width="50" height="50" relative="1" as="geometry">
            <mxPoint x="273" y="352" as="sourcePoint" />
            <mxPoint x="367.10006399658704" y="396.68999999999994" as="targetPoint" />
            <Array as="points">
              <mxPoint x="310" y="360" />
              <mxPoint x="350" y="350" />
              <mxPoint x="400" y="390" />
            </Array>
          </mxGeometry>
        </mxCell>
        <mxCell id="HvDBClcRX0wqVvIgBwbH-178" value="" style="curved=1;endArrow=classic;html=1;rounded=0;strokeColor=#000000;strokeWidth=0.5;endSize=3;" parent="1" edge="1">
          <mxGeometry width="50" height="50" relative="1" as="geometry">
            <mxPoint x="318.3804485094126" y="329.44" as="sourcePoint" />
            <mxPoint x="391.8805285051461" y="307.38999999999993" as="targetPoint" />
            <Array as="points">
              <mxPoint x="348.78008159564826" y="332.37999999999994" />
              <mxPoint x="370" y="360" />
              <mxPoint x="404.6401423924057" y="358.84" />
              <mxPoint x="421.2805605034398" y="322.09" />
            </Array>
          </mxGeometry>
        </mxCell>
        <mxCell id="HvDBClcRX0wqVvIgBwbH-179" value="" style="curved=1;endArrow=classic;html=1;rounded=0;strokeColor=#000000;strokeWidth=0.5;endSize=3;" parent="1" edge="1">
          <mxGeometry width="50" height="50" relative="1" as="geometry">
            <mxPoint x="462.08011199402716" y="360.18999999999994" as="sourcePoint" />
            <mxPoint x="553" y="344.39" as="targetPoint" />
            <Array as="points">
              <mxPoint x="447.38009599488026" y="330.78999999999996" />
              <mxPoint x="479.72013119300306" y="301.39" />
              <mxPoint x="520.8801759906139" y="316.09" />
              <mxPoint x="515" y="351.39" />
              <mxPoint x="535" y="361.39" />
            </Array>
          </mxGeometry>
        </mxCell>
        <mxCell id="HvDBClcRX0wqVvIgBwbH-180" value="" style="curved=1;endArrow=classic;html=1;rounded=0;strokeColor=#000000;strokeWidth=0.5;endSize=3;" parent="1" edge="1">
          <mxGeometry width="50" height="50" relative="1" as="geometry">
            <mxPoint x="433" y="396.39" as="sourcePoint" />
            <mxPoint x="573" y="353.39" as="targetPoint" />
            <Array as="points">
              <mxPoint x="438" y="370.39" />
              <mxPoint x="492.3199200042664" y="370.2899999999999" />
              <mxPoint x="536.4199680017066" y="414.38999999999993" />
              <mxPoint x="565.8199999999999" y="384.98999999999995" />
              <mxPoint x="548" y="359.39" />
            </Array>
          </mxGeometry>
        </mxCell>
        <mxCell id="HvDBClcRX0wqVvIgBwbH-182" value="" style="group;flipV=1;" parent="1" vertex="1" connectable="0">
          <mxGeometry x="347.99999999999994" y="439.39" width="55" height="40" as="geometry" />
        </mxCell>
        <mxCell id="HvDBClcRX0wqVvIgBwbH-159" value="" style="curved=1;endArrow=classic;html=1;rounded=0;strokeColor=#000000;strokeWidth=0.5;endSize=3;" parent="HvDBClcRX0wqVvIgBwbH-182" edge="1">
          <mxGeometry width="50" height="50" relative="1" as="geometry">
            <mxPoint x="-25" y="35" as="sourcePoint" />
            <mxPoint x="20" y="45" as="targetPoint" />
            <Array as="points">
              <mxPoint y="40" />
              <mxPoint x="15" y="25" />
              <mxPoint x="25" y="35" />
            </Array>
          </mxGeometry>
        </mxCell>
        <mxCell id="HvDBClcRX0wqVvIgBwbH-160" value="" style="curved=1;endArrow=classic;html=1;rounded=0;strokeColor=#000000;strokeWidth=0.5;endSize=3;" parent="HvDBClcRX0wqVvIgBwbH-182" edge="1">
          <mxGeometry width="50" height="50" relative="1" as="geometry">
            <mxPoint x="15.160000000000082" y="23" as="sourcePoint" />
            <mxPoint x="40.16000000000008" y="15.5" as="targetPoint" />
            <Array as="points">
              <mxPoint x="25.5" y="24" />
              <mxPoint x="31" y="35" />
              <mxPoint x="44.5" y="33" />
              <mxPoint x="50.16000000000008" y="20.5" />
            </Array>
          </mxGeometry>
        </mxCell>
        <mxCell id="HvDBClcRX0wqVvIgBwbH-161" value="" style="curved=1;endArrow=classic;html=1;rounded=0;strokeColor=#000000;strokeWidth=0.5;endSize=3;" parent="HvDBClcRX0wqVvIgBwbH-182" edge="1">
          <mxGeometry width="50" height="50" relative="1" as="geometry">
            <mxPoint x="35" y="20" as="sourcePoint" />
            <mxPoint x="65" y="25" as="targetPoint" />
            <Array as="points">
              <mxPoint x="30" y="10" />
              <mxPoint x="41" />
              <mxPoint x="55" y="5" />
              <mxPoint x="55" y="20" />
            </Array>
          </mxGeometry>
        </mxCell>
        <mxCell id="HvDBClcRX0wqVvIgBwbH-183" value="" style="group;flipV=1;" parent="1" vertex="1" connectable="0">
          <mxGeometry x="628" y="439.39" width="55" height="40" as="geometry" />
        </mxCell>
        <mxCell id="HvDBClcRX0wqVvIgBwbH-170" value="" style="curved=1;endArrow=classic;html=1;rounded=0;strokeColor=#000000;strokeWidth=0.5;endSize=3;" parent="HvDBClcRX0wqVvIgBwbH-183" edge="1">
          <mxGeometry width="50" height="50" relative="1" as="geometry">
            <mxPoint x="-25" y="35" as="sourcePoint" />
            <mxPoint x="20" y="45" as="targetPoint" />
            <Array as="points">
              <mxPoint y="40" />
              <mxPoint x="15" y="25" />
              <mxPoint x="25" y="35" />
            </Array>
          </mxGeometry>
        </mxCell>
        <mxCell id="HvDBClcRX0wqVvIgBwbH-171" value="" style="curved=1;endArrow=classic;html=1;rounded=0;strokeColor=#000000;strokeWidth=0.5;endSize=3;" parent="HvDBClcRX0wqVvIgBwbH-183" edge="1">
          <mxGeometry width="50" height="50" relative="1" as="geometry">
            <mxPoint x="15.160000000000082" y="23" as="sourcePoint" />
            <mxPoint x="40.16000000000008" y="15.5" as="targetPoint" />
            <Array as="points">
              <mxPoint x="25.5" y="24" />
              <mxPoint x="31" y="35" />
              <mxPoint x="44.5" y="33" />
              <mxPoint x="50.16000000000008" y="20.5" />
            </Array>
          </mxGeometry>
        </mxCell>
        <mxCell id="HvDBClcRX0wqVvIgBwbH-172" value="" style="curved=1;endArrow=classic;html=1;rounded=0;strokeColor=#000000;strokeWidth=0.5;endSize=3;" parent="HvDBClcRX0wqVvIgBwbH-183" edge="1">
          <mxGeometry width="50" height="50" relative="1" as="geometry">
            <mxPoint x="35" y="20" as="sourcePoint" />
            <mxPoint x="65" y="25" as="targetPoint" />
            <Array as="points">
              <mxPoint x="30" y="10" />
              <mxPoint x="41" />
              <mxPoint x="55" y="5" />
              <mxPoint x="55" y="20" />
            </Array>
          </mxGeometry>
        </mxCell>
        <mxCell id="HvDBClcRX0wqVvIgBwbH-184" value="" style="endArrow=classic;html=1;rounded=0;strokeColor=#366FE0;strokeWidth=5;endSize=1;curved=1;dashed=1;" parent="1" edge="1">
          <mxGeometry width="50" height="50" relative="1" as="geometry">
            <mxPoint x="421.2" y="340.39" as="sourcePoint" />
            <mxPoint x="421.2" y="555.39" as="targetPoint" />
          </mxGeometry>
        </mxCell>
        <mxCell id="HvDBClcRX0wqVvIgBwbH-185" value="" style="shape=cylinder3;whiteSpace=wrap;html=1;boundedLbl=1;backgroundOutline=1;size=1.5;strokeColor=#000000;fillColor=#CCCCCC;rotation=-180;" parent="1" vertex="1">
          <mxGeometry x="350.74" y="499.39" width="9.84" height="25" as="geometry" />
        </mxCell>
        <mxCell id="HvDBClcRX0wqVvIgBwbH-186" value="" style="shape=cylinder3;whiteSpace=wrap;html=1;boundedLbl=1;backgroundOutline=1;size=1.5;strokeColor=#000000;fillColor=#CCCCCC;rotation=-180;" parent="1" vertex="1">
          <mxGeometry x="638.17" y="499.39" width="9.84" height="35" as="geometry" />
        </mxCell>
        <mxCell id="HvDBClcRX0wqVvIgBwbH-187" value="" style="shape=cylinder3;whiteSpace=wrap;html=1;boundedLbl=1;backgroundOutline=1;size=1.5;strokeColor=#000000;fillColor=#CCCCCC;rotation=-180;" parent="1" vertex="1">
          <mxGeometry x="573.28" y="499.39" width="9.84" height="15" as="geometry" />
        </mxCell>
        <mxCell id="HvDBClcRX0wqVvIgBwbH-188" value="" style="shape=cylinder3;whiteSpace=wrap;html=1;boundedLbl=1;backgroundOutline=1;size=1.5;strokeColor=#000000;fillColor=#CCCCCC;rotation=-180;" parent="1" vertex="1">
          <mxGeometry x="493.17" y="499.39" width="9.84" height="65" as="geometry" />
        </mxCell>
        <mxCell id="HvDBClcRX0wqVvIgBwbH-189" value="" style="shape=cylinder3;whiteSpace=wrap;html=1;boundedLbl=1;backgroundOutline=1;size=1.5;strokeColor=#000000;fillColor=#CCCCCC;rotation=-180;" parent="1" vertex="1">
          <mxGeometry x="345.34" y="499.39" width="7.75" height="65" as="geometry" />
        </mxCell>
        <mxCell id="HvDBClcRX0wqVvIgBwbH-190" value="" style="shape=cylinder3;whiteSpace=wrap;html=1;boundedLbl=1;backgroundOutline=1;size=1.5;strokeColor=#000000;fillColor=#CCCCCC;rotation=-180;" parent="1" vertex="1">
          <mxGeometry x="457.13" y="499.39" width="6.31" height="65" as="geometry" />
        </mxCell>
        <mxCell id="HvDBClcRX0wqVvIgBwbH-191" value="" style="shape=cylinder3;whiteSpace=wrap;html=1;boundedLbl=1;backgroundOutline=1;size=1.5;strokeColor=#000000;fillColor=#CCCCCC;rotation=-180;" parent="1" vertex="1">
          <mxGeometry x="444.32" y="499.39" width="7.75" height="45" as="geometry" />
        </mxCell>
        <mxCell id="HvDBClcRX0wqVvIgBwbH-192" value="" style="shape=cylinder3;whiteSpace=wrap;html=1;boundedLbl=1;backgroundOutline=1;size=1.5;strokeColor=#000000;fillColor=#CCCCCC;rotation=-180;" parent="1" vertex="1">
          <mxGeometry x="241.92" y="499.39" width="7.75" height="25" as="geometry" />
        </mxCell>
        <mxCell id="HvDBClcRX0wqVvIgBwbH-193" value="" style="shape=cylinder3;whiteSpace=wrap;html=1;boundedLbl=1;backgroundOutline=1;size=1.5;strokeColor=#000000;fillColor=#CCCCCC;rotation=-180;" parent="1" vertex="1">
          <mxGeometry x="271.90999999999997" y="499.39" width="7.66" height="35" as="geometry" />
        </mxCell>
        <mxCell id="HvDBClcRX0wqVvIgBwbH-194" value="" style="shape=cylinder3;whiteSpace=wrap;html=1;boundedLbl=1;backgroundOutline=1;size=1.5;strokeColor=#000000;fillColor=#CCCCCC;rotation=-180;" parent="1" vertex="1">
          <mxGeometry x="256.96000000000004" y="499.39" width="8.62" height="24" as="geometry" />
        </mxCell>
        <mxCell id="HvDBClcRX0wqVvIgBwbH-195" value="" style="shape=cylinder3;whiteSpace=wrap;html=1;boundedLbl=1;backgroundOutline=1;size=1.5;strokeColor=#000000;fillColor=#CCCCCC;rotation=-180;" parent="1" vertex="1">
          <mxGeometry x="328.09" y="499.39" width="5.75" height="45" as="geometry" />
        </mxCell>
        <mxCell id="HvDBClcRX0wqVvIgBwbH-196" value="" style="shape=cylinder3;whiteSpace=wrap;html=1;boundedLbl=1;backgroundOutline=1;size=1.5;strokeColor=#000000;fillColor=#CCCCCC;rotation=-180;" parent="1" vertex="1">
          <mxGeometry x="592.36" y="499.39" width="5.75" height="45" as="geometry" />
        </mxCell>
        <mxCell id="HvDBClcRX0wqVvIgBwbH-197" value="" style="shape=cylinder3;whiteSpace=wrap;html=1;boundedLbl=1;backgroundOutline=1;size=1.5;strokeColor=#000000;fillColor=#CCCCCC;rotation=-180;" parent="1" vertex="1">
          <mxGeometry x="650.5799999999999" y="499.39" width="9.84" height="25" as="geometry" />
        </mxCell>
        <mxCell id="HvDBClcRX0wqVvIgBwbH-198" value="" style="endArrow=none;dashed=1;html=1;rounded=0;strokeColor=#CCCCCC;strokeWidth=4;endSize=3;curved=1;entryX=0.846;entryY=0.138;entryDx=0;entryDy=0;entryPerimeter=0;exitX=0.154;exitY=0.138;exitDx=0;exitDy=0;exitPerimeter=0;dashPattern=1 1;" parent="1" source="HvDBClcRX0wqVvIgBwbH-132" target="HvDBClcRX0wqVvIgBwbH-132" edge="1">
          <mxGeometry width="50" height="50" relative="1" as="geometry">
            <mxPoint x="328" y="379.39" as="sourcePoint" />
            <mxPoint x="378" y="329.39" as="targetPoint" />
          </mxGeometry>
        </mxCell>
        <mxCell id="HvDBClcRX0wqVvIgBwbH-199" value="" style="endArrow=classic;html=1;rounded=0;strokeColor=#F14C46;strokeWidth=5;endSize=1;curved=1;dashed=1;" parent="1" edge="1">
          <mxGeometry width="50" height="50" relative="1" as="geometry">
            <mxPoint x="429.2" y="340.39" as="sourcePoint" />
            <mxPoint x="429.2" y="555.39" as="targetPoint" />
          </mxGeometry>
        </mxCell>
        <mxCell id="HvDBClcRX0wqVvIgBwbH-200" value="" style="endArrow=classic;html=1;rounded=0;strokeColor=#47A823;strokeWidth=5;endSize=1;curved=1;dashed=1;" parent="1" edge="1">
          <mxGeometry width="50" height="50" relative="1" as="geometry">
            <mxPoint x="442.20000000000005" y="554.39" as="sourcePoint" />
            <mxPoint x="442.20000000000005" y="339.39" as="targetPoint" />
          </mxGeometry>
        </mxCell>
        <mxCell id="HvDBClcRX0wqVvIgBwbH-202" value="Single Tube" style="text;html=1;align=center;verticalAlign=middle;resizable=0;points=[];autosize=1;strokeColor=none;fillColor=none;" parent="1" vertex="1">
          <mxGeometry x="408" y="50" width="90" height="30" as="geometry" />
        </mxCell>
        <mxCell id="HvDBClcRX0wqVvIgBwbH-203" value="catalyst pellets" style="text;html=1;align=center;verticalAlign=middle;resizable=0;points=[];autosize=1;strokeColor=#666666;fillColor=#E6E6E6;fontColor=#333333;" parent="1" vertex="1">
          <mxGeometry x="293.75" y="78.23" width="100" height="30" as="geometry" />
        </mxCell>
        <mxCell id="HvDBClcRX0wqVvIgBwbH-204" value="Pores" style="text;html=1;align=center;verticalAlign=middle;resizable=0;points=[];autosize=1;strokeColor=#666666;fillColor=#B3B3B3;fontColor=#333333;" parent="1" vertex="1">
          <mxGeometry x="357.71000000000004" y="536.39" width="50" height="30" as="geometry" />
        </mxCell>
        <mxCell id="HvDBClcRX0wqVvIgBwbH-205" value="Well Mixed" style="text;html=1;align=center;verticalAlign=middle;resizable=0;points=[];autosize=1;fillColor=#FFFFFF;fontColor=#333333;strokeColor=#666666;" parent="1" vertex="1">
          <mxGeometry x="405.7" y="304.39" width="80" height="30" as="geometry" />
        </mxCell>
        <mxCell id="HvDBClcRX0wqVvIgBwbH-206" value="Turbulence" style="text;html=1;align=center;verticalAlign=middle;resizable=0;points=[];autosize=1;fillColor=#FFFFFF;fontColor=#333333;strokeColor=#666666;" parent="1" vertex="1">
          <mxGeometry x="200.82" y="409.39" width="80" height="30" as="geometry" />
        </mxCell>
        <mxCell id="HvDBClcRX0wqVvIgBwbH-207" value="Turbulent&lt;br&gt;Diffusion" style="text;html=1;align=center;verticalAlign=middle;resizable=0;points=[];autosize=1;fillColor=#FFFFFF;fontColor=#333333;strokeColor=#666666;" parent="1" vertex="1">
          <mxGeometry x="449.32" y="405.39" width="70" height="40" as="geometry" />
        </mxCell>
        <mxCell id="HvDBClcRX0wqVvIgBwbH-208" value="Surface&lt;br&gt;Reactions" style="text;html=1;align=center;verticalAlign=middle;resizable=0;points=[];autosize=1;fillColor=#FFFFFF;fontColor=#333333;strokeColor=#666666;" parent="1" vertex="1">
          <mxGeometry x="445.65999999999997" y="539.39" width="80" height="40" as="geometry" />
        </mxCell>
      </root>
    </mxGraphModel>
  </diagram>
</mxfile>
